<svg width="84" height="66" viewBox="0 0 84 66" fill="none" xmlns="http://www.w3.org/2000/svg">
<g clip-path="url(#clip0_93_610)">
<path d="M66.67 51.11C67.3981 51.1122 68.1128 51.3055 68.7428 51.6705C69.3728 52.0355 69.8959 52.5595 70.26 53.19H63.08C63.4448 52.5601 63.9681 52.0367 64.5979 51.6718C65.2277 51.3069 65.9421 51.1132 66.67 51.11ZM62.5 12.5C62.5 11.394 62.9393 10.3334 63.7213 9.55136C64.5034 8.76933 65.564 8.33 66.67 8.33C67.7759 8.33 68.8366 8.76933 69.6186 9.55136C70.4006 10.3334 70.84 11.394 70.84 12.5C70.8373 13.6042 70.3968 14.6623 69.6151 15.4422C68.8334 16.222 67.7742 16.66 66.67 16.66C65.5658 16.66 64.5066 16.222 63.7249 15.4422C62.9431 14.6623 62.5026 13.6042 62.5 12.5ZM56.5 27.42C58.3977 27.8643 60.1336 28.83 61.5117 30.2082C62.8899 31.5864 63.8557 33.3223 64.3 35.22C62.4064 34.7713 60.6754 33.8038 59.3011 32.426C57.9269 31.0482 56.9638 29.3147 56.52 27.42H56.5ZM76.8 27.42C76.3557 29.3177 75.3899 31.0536 74.0117 32.4318C72.6336 33.81 70.8977 34.7757 69 35.22C69.4437 33.3187 70.4117 31.5799 71.794 30.2012C73.1763 28.8224 74.9176 27.8589 76.82 27.42H76.8ZM77.07 53.2H74.73C74.3592 51.754 73.6067 50.4343 72.5512 49.3788C71.4957 48.3232 70.1759 47.5708 68.73 47.2V39.46C72.197 38.9603 75.3683 37.229 77.6637 34.583C79.959 31.9369 81.225 28.5529 81.23 25.05C81.23 24.4974 81.0112 23.9673 80.6214 23.5757C80.2316 23.184 79.7025 22.9627 79.15 22.96C77.2073 22.9601 75.2843 23.3495 73.4946 24.1052C71.7049 24.861 70.0848 25.9677 68.73 27.36V20.53C69.4826 20.3431 70.2036 20.0466 70.87 19.65L72.54 21.32C72.9346 21.7089 73.4659 21.9279 74.02 21.93C74.5713 21.9285 75.0996 21.7093 75.49 21.32C75.8802 20.9283 76.0993 20.3979 76.0993 19.845C76.0993 19.2921 75.8802 18.7617 75.49 18.37L73.82 16.7C74.214 16.0312 74.5135 15.311 74.71 14.56H77.07C77.6216 14.56 78.1507 14.3409 78.5408 13.9508C78.9308 13.5607 79.15 13.0316 79.15 12.48C79.15 11.9274 78.9312 11.3973 78.5414 11.0057C78.1516 10.614 77.6225 10.3926 77.07 10.39H74.73C74.5419 9.63779 74.2455 8.91692 73.85 8.25L75.52 6.61C75.9102 6.21828 76.1293 5.6879 76.1293 5.13499C76.1293 4.58209 75.9102 4.05172 75.52 3.66C75.3252 3.45921 75.092 3.29957 74.8343 3.19055C74.5767 3.08154 74.2998 3.02538 74.02 3.02538C73.7402 3.02538 73.4633 3.08154 73.2056 3.19055C72.948 3.29957 72.7148 3.45921 72.52 3.66L70.85 5.33C70.1811 4.93599 69.461 4.63648 68.71 4.44V2.09C68.71 1.53742 68.4912 1.00734 68.1014 0.615677C67.7116 0.224012 67.1825 0.0026439 66.63 0C66.0774 0.0026439 65.5484 0.224012 65.1586 0.615677C64.7688 1.00734 64.55 1.53742 64.55 2.09V4.44C63.799 4.63648 63.0788 4.93599 62.41 5.33L60.74 3.66C60.5452 3.45921 60.312 3.29957 60.0543 3.19055C59.7967 3.08154 59.5198 3.02538 59.24 3.02538C58.9602 3.02538 58.6833 3.08154 58.4256 3.19055C58.168 3.29957 57.9348 3.45921 57.74 3.66C57.3498 4.05172 57.1307 4.58209 57.1307 5.13499C57.1307 5.6879 57.3498 6.21828 57.74 6.61L59.41 8.27C59.016 8.93884 58.7165 9.65901 58.52 10.41H56.25C55.6983 10.41 55.1693 10.6292 54.7792 11.0192C54.3891 11.4093 54.17 11.9384 54.17 12.49C54.1647 12.7665 54.2145 13.0413 54.3167 13.2983C54.4188 13.5553 54.5712 13.7893 54.7649 13.9867C54.9586 14.1841 55.1896 14.3409 55.4446 14.4479C55.6996 14.555 55.9734 14.6101 56.25 14.61H58.61C58.8002 15.3631 59.1001 16.0841 59.5 16.75L57.83 18.42C57.4398 18.8117 57.2207 19.3421 57.2207 19.895C57.2207 20.4479 57.4398 20.9783 57.83 21.37C58.0221 21.565 58.2509 21.7201 58.5032 21.8265C58.7554 21.9329 59.0262 21.9885 59.3 21.99C59.8541 21.9879 60.3853 21.7689 60.78 21.38L62.45 19.71C63.1163 20.1067 63.8374 20.4031 64.59 20.59V27.42C63.2338 26.0295 61.6134 24.924 59.824 24.1684C58.0347 23.4128 56.1123 23.0224 54.17 23.02C53.6174 23.0226 53.0884 23.244 52.6986 23.6357C52.3088 24.0273 52.09 24.5574 52.09 25.11C52.0971 28.6123 53.3638 31.9952 55.6587 34.6409C57.9537 37.2865 61.1238 39.0183 64.59 39.52V47.26C63.145 47.6327 61.8262 48.3858 60.771 49.4411C59.7158 50.4963 58.9627 51.815 58.59 53.26H58.32C57.5533 53.1877 56.8256 52.8882 56.23 52.4L55.52 51.68C56.1604 51.3722 56.745 50.9599 57.25 50.46C57.8318 49.8827 58.2931 49.1956 58.6073 48.4386C58.9214 47.6815 59.0821 46.8696 59.08 46.05C59.0834 45.2358 58.9262 44.429 58.6173 43.6757C58.3084 42.9224 57.854 42.2374 57.28 41.66L43.98 27.68C41.6689 25.4637 38.6291 24.166 35.43 24.03H2.08998C1.81432 24.026 1.54061 24.0769 1.28478 24.1796C1.02895 24.2824 0.796101 24.435 0.599767 24.6285C0.403432 24.8221 0.247532 25.0527 0.141131 25.307C0.0347306 25.5614 -0.0200482 25.8343 -0.0200195 26.11C-0.0200195 26.6617 0.199122 27.1907 0.589198 27.5808C0.979274 27.9709 1.50833 28.19 2.05998 28.19H35.42C37.4953 28.3381 39.4574 29.1921 40.98 30.61L54.33 44.55C54.7201 44.9398 54.9396 45.4685 54.94 46.02C54.9389 46.5743 54.7198 47.1059 54.33 47.5C54.1352 47.7008 53.902 47.8604 53.6443 47.9695C53.3867 48.0785 53.1098 48.1346 52.83 48.1346C52.5502 48.1346 52.2733 48.0785 52.0156 47.9695C51.758 47.8604 51.5248 47.7008 51.33 47.5L45.19 41.35C44.9952 41.1492 44.762 40.9896 44.5043 40.8806C44.2467 40.7715 43.9698 40.7154 43.69 40.7154C43.4102 40.7154 43.1333 40.7715 42.8756 40.8806C42.618 40.9896 42.3848 41.1492 42.19 41.35C41.7998 41.7417 41.5807 42.2721 41.5807 42.825C41.5807 43.3779 41.7998 43.9083 42.19 44.3L53.19 55.3C54.5557 56.5667 56.3288 57.3043 58.19 57.38H77.09C77.3631 57.38 77.6336 57.4338 77.886 57.5383C78.1383 57.6429 78.3676 57.7961 78.5608 57.9892C78.7539 58.1824 78.9071 58.4117 79.0117 58.664C79.1162 58.9164 79.17 59.1869 79.17 59.46C79.17 60.0117 78.9508 60.5407 78.5608 60.9308C78.1707 61.3209 77.6416 61.54 77.09 61.54H49.98C47.8879 61.407 45.8904 60.62 44.27 59.29L31.5 46.35C30.3198 45.2579 28.9158 44.4362 27.3856 43.9423C25.8554 43.4484 24.2359 43.294 22.64 43.49L1.73998 46.97C1.4699 47.0148 1.21132 47.1126 0.979083 47.2576C0.746847 47.4025 0.545521 47.592 0.386652 47.8149C0.227783 48.0379 0.114496 48.2901 0.0532904 48.5569C-0.00791572 48.8238 -0.0158367 49.1001 0.0299807 49.37C0.12302 49.9142 0.427643 50.3996 0.87732 50.72C1.327 51.0404 1.88519 51.1698 2.42998 51.08L23.32 47.61C24.259 47.5256 25.2055 47.6318 26.1025 47.9222C26.9995 48.2127 27.8286 48.6813 28.54 49.3L41.38 62.3C43.7801 64.3711 46.8122 65.5663 49.98 65.69H77.09C78.7468 65.6874 80.3349 65.028 81.5065 63.8565C82.678 62.685 83.3373 61.0968 83.34 59.44C83.3347 57.784 82.6745 56.1974 81.5036 55.0264C80.3326 53.8555 78.746 53.1953 77.09 53.19L77.07 53.2Z" fill="#EC8C77"/>
</g>
<defs>
<clipPath id="clip0_93_610">
<rect width="83.33" height="65.69" fill="white"/>
</clipPath>
</defs>
</svg>
