<svg width="13" height="13" viewBox="0 0 13 13" fill="none" xmlns="http://www.w3.org/2000/svg">
<g clip-path="url(#clip0_1079_1158)">
<path d="M6.5 11.96C5.05239 11.9585 3.6645 11.3827 2.64089 10.3591C1.61727 9.33549 1.04153 7.94761 1.04 6.5C1.04153 5.05239 1.61727 3.66451 2.64089 2.64089C3.6645 1.61727 5.05239 1.04152 6.5 1.03999C7.9475 1.0419 9.33516 1.61778 10.3587 2.64131C11.3822 3.66485 11.9581 5.05251 11.96 6.5C11.9581 7.9475 11.3822 9.33515 10.3587 10.3587C9.33516 11.3822 7.9475 11.9581 6.5 11.96ZM6.5 0C4.77609 0 3.12279 0.684817 1.90381 1.9038C0.684819 3.12279 0 4.77609 0 6.5C0 8.22391 0.684819 9.87721 1.90381 11.0962C3.12279 12.3152 4.77609 13 6.5 13C8.22332 12.9981 9.87551 12.3127 11.0941 11.0941C12.3127 9.87551 12.9981 8.22332 13 6.5C12.9981 4.77668 12.3127 3.12449 11.0941 1.90592C9.87551 0.687347 8.22332 0.00191162 6.5 0Z" fill="#5E6B7A"/>
<path d="M7.57203 3.61979C7.57203 3.88795 7.4655 4.14513 7.27588 4.33475C7.08626 4.52437 6.82908 4.6309 6.56092 4.6309C6.29275 4.6309 6.03557 4.52437 5.84595 4.33475C5.65633 4.14513 5.5498 3.88795 5.5498 3.61979C5.5498 3.35162 5.65633 3.09443 5.84595 2.90481C6.03557 2.71519 6.29275 2.60868 6.56092 2.60868C6.82908 2.60868 7.08626 2.71519 7.27588 2.90481C7.4655 3.09443 7.57203 3.35162 7.57203 3.61979Z" fill="#5E6B7A"/>
<path d="M7.78101 8.93533H7.41413V5.39933C7.41413 5.32271 7.38369 5.24924 7.32951 5.19506C7.27533 5.14088 7.20185 5.11044 7.12524 5.11044H5.49446C5.41784 5.11044 5.34436 5.14088 5.29018 5.19506C5.236 5.24924 5.20557 5.32271 5.20557 5.39933V5.97711C5.20557 6.05373 5.236 6.1272 5.29018 6.18138C5.34436 6.23556 5.41784 6.266 5.49446 6.266H5.85557V8.944H5.49446C5.41784 8.944 5.34436 8.97443 5.29018 9.0286C5.236 9.08278 5.20557 9.15627 5.20557 9.23289V9.81067C5.20557 9.88729 5.236 9.96076 5.29018 10.0149C5.34436 10.0691 5.41784 10.0996 5.49446 10.0996H7.78101C7.85763 10.0996 7.93111 10.0691 7.98529 10.0149C8.03947 9.96076 8.0699 9.88729 8.0699 9.81067V9.23289C8.0699 9.15627 8.03947 9.08278 7.98529 9.0286C7.93111 8.97443 7.85763 8.944 7.78101 8.944V8.93533Z" fill="#5E6B7A"/>
</g>
<defs>
<clipPath id="clip0_1079_1158">
<rect width="13" height="13" fill="white"/>
</clipPath>
</defs>
</svg>
