<svg width="16" height="21" viewBox="0 0 16 21" fill="none" xmlns="http://www.w3.org/2000/svg">
<g clip-path="url(#clip0_431_7214)">
<path d="M7.97627 1.17027C6.18408 1.18455 4.46945 1.88421 3.20214 3.11836C1.93484 4.35252 1.21638 6.02228 1.20173 7.76758C1.20173 11.5495 5.23625 17.0332 7.73679 19.7015C7.87918 19.8885 8.0712 19.8402 8.21575 19.7015C10.7638 16.8924 14.7983 11.6986 14.7983 7.76758C14.7812 6.015 14.0555 4.3396 12.7785 3.10462C11.5014 1.86963 9.776 1.17462 7.97627 1.17027ZM7.97627 0C10.0967 0.00162832 12.1304 0.819907 13.6336 2.2763C15.1368 3.73269 15.9875 5.70898 16 7.77389C16 12.0306 11.9159 17.3652 9.17799 20.4537C9.03597 20.6219 8.85829 20.7582 8.65712 20.8533C8.45595 20.9484 8.23604 21 8.01248 21.0046C7.78892 21.0092 7.56698 20.9667 7.36187 20.8799C7.15676 20.7932 6.97334 20.6643 6.82416 20.502C4.13161 17.5606 0 11.8877 0 7.77389C0.00964747 5.71502 0.853782 3.74313 2.34875 2.28728C3.84372 0.831423 5.86856 0.00939506 7.98274 0H7.97627Z" fill="#2C596B"/>
<path d="M7.9763 4.72732C7.56591 4.72622 7.15933 4.80407 6.77993 4.95643C6.40053 5.1088 6.05578 5.33266 5.76549 5.61517C5.47519 5.89767 5.24507 6.23325 5.08835 6.60262C4.93163 6.97199 4.85139 7.36788 4.85224 7.76754C4.84624 8.17086 4.9226 8.57132 5.07688 8.94566C5.23116 9.31999 5.46029 9.66073 5.75096 9.94809C6.04163 10.2355 6.38803 10.4637 6.77006 10.6196C7.15208 10.7754 7.5621 10.8558 7.9763 10.8561C8.39407 10.8606 8.80856 10.7838 9.19544 10.6301C9.58231 10.4765 9.93378 10.2492 10.2292 9.96151C10.5246 9.67381 10.7581 9.33152 10.9158 8.95476C11.0736 8.57801 11.1524 8.17438 11.1478 7.76754C11.1473 7.36435 11.0645 6.96528 10.9043 6.59349C10.7442 6.22171 10.5097 5.88462 10.2147 5.60178C9.91963 5.31894 9.56982 5.09598 9.18557 4.94587C8.80132 4.79575 8.39027 4.72148 7.9763 4.72732ZM7.9763 3.55702C8.54784 3.54951 9.11521 3.65265 9.64547 3.86046C10.1757 4.06827 10.6583 4.37661 11.0652 4.76756C11.4721 5.15852 11.7951 5.62428 12.0156 6.13784C12.2361 6.65139 12.3496 7.20249 12.3495 7.75912C12.3556 8.32004 12.2466 8.87651 12.029 9.39588C11.8114 9.91525 11.4895 10.3871 11.0822 10.7837C10.6749 11.1804 10.1903 11.4939 9.65701 11.7058C9.12369 11.9177 8.55229 12.0239 7.9763 12.018C7.40144 12.0199 6.83186 11.9111 6.30037 11.6977C5.76889 11.4844 5.28599 11.1708 4.8795 10.7749C4.47301 10.379 4.15095 9.90879 3.93188 9.39121C3.71281 8.87363 3.60106 8.31895 3.60305 7.75912C3.61218 6.63756 4.07771 5.56532 4.89755 4.77757C5.71739 3.98981 6.82459 3.55087 7.9763 3.55702Z" fill="#2C596B"/>
</g>
<defs>
<clipPath id="clip0_431_7214">
<rect width="16" height="21" fill="white"/>
</clipPath>
</defs>
</svg>
