<svg width="6" height="10" viewBox="0 0 6 10" fill="none" xmlns="http://www.w3.org/2000/svg">
<path d="M5.7137 4.96969C5.70706 4.76567 5.62512 4.57117 5.48342 4.42308L1.44919 0.256891C1.37271 0.177743 1.28123 0.114336 1.17998 0.0702973C1.07874 0.026259 0.969723 0.00245684 0.859186 0.000254697C0.748525 -0.00247456 0.638429 0.0167591 0.535374 0.0568253C0.432319 0.0968915 0.338374 0.156981 0.259084 0.23356C0.0982547 0.3863 0.00516415 0.596081 0.00023509 0.816827C-0.00195741 0.926467 0.0176954 1.03546 0.0580788 1.13755C0.0984616 1.23964 0.158764 1.33283 0.235549 1.41176L3.70667 4.99968L0.235549 8.58927C0.159057 8.66817 0.098991 8.76122 0.0587765 8.86313C0.0185615 8.96504 -0.00100602 9.0738 0.00117933 9.18321C0.00336467 9.29261 0.0272661 9.40053 0.0715185 9.50077C0.115771 9.60102 0.179502 9.69165 0.259084 9.76748C0.338659 9.84331 0.432521 9.90286 0.535312 9.94273C0.638104 9.9826 0.747825 10.002 0.858181 9.99984C0.968537 9.99767 1.07737 9.97398 1.17848 9.9301C1.2796 9.88623 1.37103 9.82304 1.44751 9.74414L5.48173 5.57795C5.55955 5.49716 5.6202 5.40168 5.66005 5.29718C5.6999 5.19269 5.71814 5.08131 5.7137 4.96969Z" fill="black"/>
</svg>
