<svg width="15" height="15" viewBox="0 0 15 15" fill="none" xmlns="http://www.w3.org/2000/svg">
<path d="M14.6353 2.13561C14.7528 2.02036 14.8457 1.88248 14.9083 1.73029C14.971 1.57811 15.0021 1.41478 14.9999 1.25022C15.0023 1.08563 14.9712 0.92229 14.9085 0.770087C14.8458 0.617885 14.7529 0.48 14.6353 0.364826C14.5206 0.246638 14.3828 0.153297 14.2305 0.0905823C14.0782 0.0278675 13.9146 -0.00288271 13.7499 0.000252918C13.5852 -0.0031323 13.4215 0.0274967 13.2692 0.0902263C13.1169 0.152956 12.9791 0.246437 12.8645 0.364826L7.50006 5.72925L2.13562 0.364826C2.02089 0.246638 1.88309 0.153297 1.73079 0.0905823C1.57848 0.0278675 1.41491 -0.00288271 1.25022 0.000252918C1.0855 -0.0031323 0.921857 0.0274967 0.769513 0.0902263C0.617169 0.152956 0.479403 0.246437 0.364827 0.364826C0.246438 0.479401 0.152957 0.617159 0.0902274 0.769502C0.0274976 0.921845 -0.00313232 1.0855 0.000252913 1.25022C-0.00288272 1.4149 0.0278613 1.57847 0.0905763 1.73078C0.153291 1.88309 0.246639 2.02088 0.364827 2.13561L5.72927 7.50003L0.364827 12.8645C0.246438 12.979 0.152957 13.1168 0.0902274 13.2691C0.0274976 13.4215 -0.00313232 13.5851 0.000252913 13.7499C-0.00288272 13.9145 0.0278613 14.0781 0.0905763 14.2304C0.153291 14.3827 0.246639 14.5205 0.364827 14.6352C0.479705 14.7532 0.617527 14.8465 0.769799 14.9092C0.922072 14.9719 1.08557 15.0027 1.25022 14.9998C1.41484 15.0025 1.57826 14.9715 1.7305 14.9088C1.88274 14.8461 2.02059 14.753 2.13562 14.6352L7.50006 9.27081L12.8645 14.6352C12.9794 14.7532 13.1172 14.8465 13.2695 14.9092C13.4218 14.9719 13.5853 15.0027 13.7499 14.9998C13.9145 15.0025 14.0779 14.9715 14.2302 14.9088C14.3824 14.8461 14.5203 14.753 14.6353 14.6352C14.7528 14.52 14.8457 14.3821 14.9083 14.2299C14.971 14.0777 15.0021 13.9144 14.9999 13.7499C15.0023 13.5853 14.9712 13.4219 14.9085 13.2697C14.8458 13.1175 14.7529 12.9796 14.6353 12.8645L9.27085 7.50003L14.6353 2.13561Z" fill="white"/>
</svg>
