<svg width="15" height="15" viewBox="0 0 15 15" fill="none" xmlns="http://www.w3.org/2000/svg">
<path d="M14.6353 2.49519C14.7528 2.39115 14.8457 2.26669 14.9083 2.12931C14.971 1.99194 15.0021 1.8445 14.9999 1.69595C15.0023 1.54738 14.9712 1.39993 14.9085 1.26254C14.8458 1.12515 14.7529 1.00068 14.6353 0.89671C14.5206 0.790022 14.3828 0.705764 14.2305 0.649151C14.0782 0.592539 13.9146 0.564781 13.7499 0.567611C13.5852 0.564555 13.4215 0.592204 13.2692 0.64883C13.1169 0.705455 12.9791 0.789841 12.8645 0.89671L7.50006 5.73916L2.13562 0.89671C2.02089 0.790022 1.88309 0.705764 1.73079 0.649151C1.57848 0.592539 1.41491 0.564781 1.25022 0.567611C1.0855 0.564555 0.921857 0.592204 0.769513 0.64883C0.617169 0.705455 0.479403 0.789841 0.364827 0.89671C0.246438 1.00014 0.152957 1.12449 0.0902274 1.26201C0.0274976 1.39953 -0.00313232 1.54726 0.000252913 1.69595C-0.00288272 1.84461 0.0278613 1.99226 0.0905763 2.12975C0.153291 2.26724 0.246639 2.39162 0.364827 2.49519L5.72927 7.33763L0.364827 12.1801C0.246438 12.2835 0.152957 12.4079 0.0902274 12.5454C0.0274976 12.6829 -0.00313232 12.8306 0.000252913 12.9793C-0.00288272 13.128 0.0278613 13.2756 0.0905763 13.4131C0.153291 13.5506 0.246639 13.675 0.364827 13.7786C0.479705 13.8851 0.617527 13.9692 0.769799 14.0258C0.922072 14.0824 1.08557 14.1103 1.25022 14.1077C1.41484 14.11 1.57826 14.0821 1.7305 14.0255C1.88274 13.9689 2.02059 13.8849 2.13562 13.7786L7.50006 8.93611L12.8645 13.7786C12.9794 13.8851 13.1172 13.9692 13.2695 14.0258C13.4218 14.0824 13.5853 14.1103 13.7499 14.1077C13.9145 14.11 14.0779 14.0821 14.2302 14.0255C14.3824 13.9689 14.5203 13.8849 14.6353 13.7786C14.7528 13.6745 14.8457 13.5501 14.9083 13.4127C14.971 13.2753 15.0021 13.1279 14.9999 12.9793C15.0023 12.8308 14.9712 12.6833 14.9085 12.5459C14.8458 12.4085 14.7529 12.284 14.6353 12.1801L9.27085 7.33763L14.6353 2.49519Z" fill="black"/>
</svg>
